{"title":"Norm of the North (2016) BRRIP 1080P NO CINAVIA","uid":14680653,"size":3798113373,"categoryP":"video","categoryS":"hd___movies","magnet":"?xt=urn:btih:59a664e8ee89e2736b9aac319609fa120f23030c&amp;dn=Norm+of+the+North+%282016%29+BRRIP+1080P+NO+CINAVIA&amp;tr=udp%3A%2F%2Ftracker.leechers-paradise.org%3A6969&amp;tr=udp%3A%2F%2Fzer0day.ch%3A1337&amp;tr=udp%3A%2F%2Fopen.demonii.com%3A1337&amp;tr=udp%3A%2F%2Ftracker.coppersurfer.tk%3A6969&amp;tr=udp%3A%2F%2Fexodus.desync.com%3A6969","seeders":3,"leechers":2,"uploader":"jmanwf","files":1,"time":1463985218,"description":"When a real estate development invades his Arctic home, Norm and his three lemming friends head to New York City, where Norm becomes the mascot of the corporation in an attempt to bring it down from the inside and protect his homeland.\r\n\r\n\r\nVideo\r\nID : 1\r\nFormat : AVC\r\nFormat/Info : Advanced Video Codec\r\nFormat profile :   \r\nFormat settings, CABAC : Yes\r\nFormat settings, ReFrames : 3 frames\r\nCodec ID : V_MPEG4/ISO/AVC\r\nDuration : 1h 30mn\r\nBit rate mode : Variable\r\nBit rate : 4 901 Kbps\r\nMaximum bit rate : 30.0 Mbps\r\nWidth : 1 920 pixels\r\nHeight : 1 080 pixels\r\nDisplay aspect ratio : 16:9\r\nFrame rate mode : Constant\r\nFrame rate : 23.976 (24000/1001) fps\r\nColor space : YUV\r\nChroma subsampling : 4:2:0\r\nBit depth : 8 bits\r\nScan type : Progressive\r\nBits/(Pixel*Frame) : 0.099\r\nStream size : 3.11 GiB (88%)\r\nLanguage : English\r\nDefault : Yes\r\nForced : No\r\nColor range : Limited\r\nColor primaries : BT.709\r\nTransfer characteristics : BT.709\r\nMatrix coefficients : BT.709\r\n\r\nAudio\r\nID : 2\r\nFormat : AC-3\r\nFormat/Info : Audio Coding 3\r\nMode extension : CM (complete main)\r\nFormat settings, Endianness : Big\r\nCodec ID : A_AC3\r\nDuration : 1h 30mn\r\nBit rate mode : Constant\r\nBit rate : 640 Kbps\r\nChannel(s) : 6 channels\r\nChannel positions : Front: L C R, Side: L R, LFE\r\nSampling rate : 48.0 KHz\r\nFrame rate : 31.250 fps (1536 spf)\r\nCompression mode : Lossy\r\nDelay relative to video : -125ms\r\nStream size : 415 MiB (11%)\r\nLanguage : English\r\nDefault : Yes\r\nForced : No\r\n\r\nText\r\nID : 3\r\nFormat : PGS\r\nMuxing mode : zlib\r\nCodec ID : S_HDMV/PGS\r\nCodec ID/Info : Picture based subtitle format used on BDs/HD-DVDs\r\nDuration : 1h 26mn\r\nBit rate : 29.2 Kbps\r\nCount of elements : 3327\r\nStream size : 18.0 MiB (0%)\r\nLanguage : Englishhttp://\r\nDefault : Yes\r\nForced : No\r\n\r\n\r\n\r\n \nhttp://s33.postimg.org/w7hhi7m4v/image.jpg\r\n\r\n\r\n\r\n\r\n \nhttp://s33.postimg.org/8x7x09z2n/image.jpg\r\n\r\n\r\n \nhttp://www.imdb.com/title/tt1594972/","torrent":{"xt":"urn:btih:59a664e8ee89e2736b9aac319609fa120f23030c","amp;dn":"Norm+of+the+North+%282016%29+BRRIP+1080P+NO+CINAVIA","amp;tr":["udp%3A%2F%2Ftracker.leechers-paradise.org%3A6969","udp%3A%2F%2Fzer0day.ch%3A1337","udp%3A%2F%2Fopen.demonii.com%3A1337","udp%3A%2F%2Ftracker.coppersurfer.tk%3A6969","udp%3A%2F%2Fexodus.desync.com%3A6969"],"infoHash":"59a664e8ee89e2736b9aac319609fa120f23030c","infoHashBuffer":{"type":"Buffer","data":[89,166,100,232,238,137,226,115,107,154,172,49,150,9,250,18,15,35,3,12]},"announce":[],"urlList":[]}}